<?xml version="1.0" encoding="UTF-8" standalone="no"?>
<!-- Created with Inkscape (http://www.inkscape.org/) -->

<svg xmlns:dc="http://purl.org/dc/elements/1.1/" xmlns:cc="http://creativecommons.org/ns#" xmlns:rdf="http://www.w3.org/1999/02/22-rdf-syntax-ns#" xmlns:svg="http://www.w3.org/2000/svg" xmlns="http://www.w3.org/2000/svg" xmlns:sodipodi="http://sodipodi.sourceforge.net/DTD/sodipodi-0.dtd" xmlns:inkscape="http://www.inkscape.org/namespaces/inkscape" width="564.13806" height="202.09465" id="svg3333" version="1.1" inkscape:version="0.48.4 r9939" sodipodi:docname="GoldenNOVAlogo.svg">
  <defs id="defs3335" />
  <sodipodi:namedview id="base" pagecolor="#ffffff" bordercolor="#666666" borderopacity="1.0" inkscape:pageopacity="0.0" inkscape:pageshadow="2" inkscape:zoom="0.98994949" inkscape:cx="103.37121" inkscape:cy="250.09161" inkscape:document-units="px" inkscape:current-layer="layer1" showgrid="false" inkscape:window-width="1309" inkscape:window-height="744" inkscape:window-x="57" inkscape:window-y="24" inkscape:window-maximized="1" showguides="true" inkscape:guide-bbox="true" fit-margin-top="0" fit-margin-left="0" fit-margin-right="0" fit-margin-bottom="0" />
  <metadata id="metadata3338">
    <rdf:RDF>
      <cc:Work rdf:about="">
        <dc:format>image/svg+xml</dc:format>
        <dc:type rdf:resource="http://purl.org/dc/dcmitype/StillImage" />
        <dc:title />
      </cc:Work>
    </rdf:RDF>
  </metadata>
  <g inkscape:label="Layer 1" inkscape:groupmode="layer" id="layer1" transform="translate(-89.359547,-294.81757)">
    <g id="g9" transform="matrix(1.062627,0,0,1.062627,39.535092,-103.97784)" style="fill:#fc0">
      <g id="g11" style="fill:#fc0">
        <path style="fill:#fc0;fill-opacity:1" inkscape:connector-curvature="0" id="path13" d="m 80.498,564.698 h -6.902 l -5.718,-19.562 h -0.122 l -5.717,19.562 h -6.943 l -8.208,-28.913 h 7.515 l 4.574,19.235 H 59.1 l 5.145,-19.235 h 7.27 l 5.186,19.235 h 0.122 l 4.657,-19.235 h 7.269 l -8.251,28.913 z" />
        <path style="fill:#fc0;fill-opacity:1" inkscape:connector-curvature="0" id="path15" d="m 100.09,564.698 v -28.913 h 19.439 v 5.923 h -12.701 v 5.431 h 12.007 v 5.595 h -12.007 v 6.002 h 13.437 v 5.963 H 100.09 z" />
        <path style="fill:#fc0;fill-opacity:1" inkscape:connector-curvature="0" id="path17" d="m 144.763,564.698 h -11.518 v -28.913 h 11.518 c 4.492,0 9.842,1.593 9.842,7.433 0,3.185 -1.92,5.31 -4.737,6.249 v 0.082 c 3.308,0.571 5.921,2.94 5.921,6.737 0,6.29 -5.514,8.412 -11.026,8.412 z m -1.348,-23.358 h -3.431 v 5.961 h 3.757 c 2.614,0 4.125,-1.102 4.125,-3.145 0,-1.96 -1.511,-2.816 -4.451,-2.816 z m 0.448,11.108 h -3.879 v 6.614 h 3.921 c 2.205,0 4.9,-0.612 4.9,-3.43 0,-2.409 -1.96,-3.184 -4.942,-3.184 z" />
        <path style="fill:#fc0;fill-opacity:1" inkscape:connector-curvature="0" id="path19" d="m 198.129,564.698 h -10.782 v -28.913 h 10.455 c 8.208,0 16.54,3.43 16.54,14.376 0,10.169 -8.25,14.537 -16.213,14.537 z m -0.49,-22.952 h -3.472 v 16.909 h 3.308 c 4.982,0 9.597,-2.042 9.597,-8.494 0,-6.493 -4.615,-8.415 -9.433,-8.415 z" />
        <path style="fill:#fc0;fill-opacity:1" inkscape:connector-curvature="0" id="path21" d="m 227.321,564.698 v -28.913 h 19.439 v 5.923 h -12.701 v 5.431 h 12.006 v 5.595 h -12.006 v 6.002 h 13.436 v 5.963 h -20.174 z" />
        <path style="fill:#fc0;fill-opacity:1" inkscape:connector-curvature="0" id="path23" d="m 274.81,564.698 h -6.983 l -10.945,-28.913 h 7.841 l 6.698,20.501 h 0.163 l 6.656,-20.501 h 7.719 l -11.149,28.913 z" />
        <path style="fill:#fc0;fill-opacity:1" inkscape:connector-curvature="0" id="path25" d="m 296.692,564.698 v -28.913 h 19.44 v 5.923 h -12.701 v 5.431 h 12.007 v 5.595 h -12.007 v 6.002 h 13.437 v 5.963 h -20.176 z" />
        <path style="fill:#fc0;fill-opacity:1" inkscape:connector-curvature="0" id="path27" d="m 329.847,564.698 v -28.913 h 7.024 v 22.829 h 11.191 v 6.084 h -18.215 z" />
        <path style="fill:#fc0;fill-opacity:1" inkscape:connector-curvature="0" id="path29" d="m 372.845,565.476 c -9.025,0 -15.723,-6.208 -15.723,-15.355 0,-9.271 6.697,-15.111 15.723,-15.111 9.066,0 15.765,5.84 15.765,15.111 -0.001,9.147 -6.699,15.355 -15.765,15.355 z m 0,-24.177 c -4.9,0 -8.249,3.756 -8.249,8.821 0,5.228 3.39,8.983 8.249,8.983 4.86,0 8.291,-3.756 8.291,-8.983 0,-5.065 -3.391,-8.821 -8.291,-8.821 z" />
        <path style="fill:#fc0;fill-opacity:1" inkscape:connector-curvature="0" id="path31" d="m 412.043,553.796 h -3.472 v 10.902 h -6.983 v -28.913 h 10.619 c 6.329,0 11.311,2.287 11.311,8.901 0,6.7 -5.43,9.11 -11.475,9.11 z m -0.409,-12.376 h -3.062 v 6.822 h 2.94 c 2.614,0 5.023,-0.777 5.023,-3.515 0,-2.775 -2.409,-3.307 -4.901,-3.307 z" />
        <path style="fill:#fc0;fill-opacity:1" inkscape:connector-curvature="0" id="path33" d="m 462.31,564.698 0.163,-20.459 h -0.123 l -7.515,20.459 h -4.9 l -7.311,-20.459 h -0.122 l 0.164,20.459 h -6.576 v -28.913 h 9.924 l 6.575,18.541 h 0.164 l 6.289,-18.541 h 10.087 v 28.913 h -6.819 z" />
        <path style="fill:#fc0;fill-opacity:1" inkscape:connector-curvature="0" id="path35" d="m 483.454,564.698 v -28.913 h 19.44 v 5.923 h -12.702 v 5.431 h 12.007 v 5.595 h -12.007 v 6.002 h 13.437 v 5.963 h -20.175 z" />
        <path style="fill:#fc0;fill-opacity:1" inkscape:connector-curvature="0" id="path37" d="m 534.986,564.698 -11.64,-18.908 h -0.122 l 0.164,18.908 h -6.779 v -28.913 h 7.964 l 11.598,18.867 h 0.122 l -0.163,-18.867 h 6.78 v 28.913 h -7.924 z" />
        <path style="fill:#fc0;fill-opacity:1" inkscape:connector-curvature="0" id="path39" d="m 569.61,541.746 v 22.952 h -6.983 v -22.952 h -8.168 v -5.961 h 23.319 v 5.961 h -8.168 z" />
      </g>
    </g>
    <polygon style="fill:#a80;fill-opacity:1" id="polygon41" points="528.811,375.319 481.228,375.292 530.014,521.936 577.598,521.963 " transform="matrix(1.062627,0,0,1.062627,39.535092,-103.97784)" />
    <polygon style="fill:#a80;fill-opacity:1" id="polygon43" points="146.652,375.319 99.068,375.292 147.854,521.936 195.438,521.963 " transform="matrix(1.062627,0,0,1.062627,39.535092,-103.97784)" />
    <polygon style="fill:#a80;fill-opacity:1" id="polygon45" points="427.639,375.319 380.056,375.292 428.842,521.936 476.426,521.963 " transform="matrix(1.062627,0,0,1.062627,39.535092,-103.97784)" />
    <polygon style="fill:#ffd42a;fill-opacity:1" id="polygon47" points="94.595,521.906 47.009,521.906 95.881,375.292 143.466,375.292 " transform="matrix(1.062627,0,0,1.062627,39.535092,-103.97784)" />
    <polygon style="fill:#ffd42a;fill-opacity:1" id="polygon49" points="194.91,521.906 147.324,521.906 196.195,375.292 243.781,375.292 " transform="matrix(1.062627,0,0,1.062627,39.535092,-103.97784)" />
    <line style="fill:#a80;fill-opacity:1;stroke:#a80;stroke-width:7.43838882;stroke-miterlimit:10;stroke-opacity:1" id="line51" y2="415.86249" x2="637.69525" y1="415.86249" x1="511.96524" stroke-miterlimit="10" />
    <polygon style="fill:#ffd42a;fill-opacity:1" id="polygon53" points="477.825,521.906 430.24,521.906 479.111,375.292 526.696,375.292 " transform="matrix(1.062627,0,0,1.062627,39.535092,-103.97784)" />
    <g id="g55" transform="matrix(1.062627,0,0,1.062627,39.535092,-103.97784)" style="fill:#ffd42a">
      <g id="g57" style="fill:#ffd42a" />
      <g id="g61" style="fill:#ffd42a">
        <path style="fill:#ffd42a;fill-opacity:1" inkscape:connector-curvature="0" id="path63" d="m 309.16575,518.00026 c -2.371,0 -4.292,-1.919 -4.292,-4.289 v -129.838 c 0,-2.371 1.921,-4.29 4.292,-4.29 2.367,0 4.29,1.919 4.29,4.29 v 129.838 c 0,2.37 -1.923,4.289 -4.29,4.289 z" />
      </g>
      <g id="g65" style="fill:#ffd42a">
        <path style="fill:#ffd42a;fill-opacity:1" inkscape:connector-curvature="0" id="path67" d="m 374.08475,453.08126 h -129.842 c -2.367,0 -4.289,-1.921 -4.289,-4.288 0,-2.37 1.921,-4.29 4.289,-4.29 h 129.841 c 2.369,0 4.288,1.92 4.288,4.29 10e-4,2.367 -1.918,4.288 -4.287,4.288 z" />
        <path d="m 374.08475,453.08126 h -129.842 c -2.367,0 -4.289,-1.921 -4.289,-4.288 0,-2.37 1.921,-4.29 4.289,-4.29 h 129.841 c 2.369,0 4.288,1.92 4.288,4.29 10e-4,2.367 -1.918,4.288 -4.287,4.288 z" id="path4090" inkscape:connector-curvature="0" style="fill:#ffd42a;fill-opacity:1" />
      </g>
      <g id="g69" style="fill:#ffd42a">
        <path style="fill:#ffd42a;fill-opacity:1" inkscape:connector-curvature="0" id="path71" d="m 309.68475,521.19926 c -40.208,0 -72.919,-32.712 -72.919,-72.921 0,-40.204 32.711,-72.92 72.919,-72.92 40.209,0 72.92,32.716 72.92,72.92 0,40.209 -32.711,72.921 -72.92,72.921 z m 0,-137.258 c -35.478,0 -64.342,28.861 -64.342,64.337 0,35.478 28.864,64.344 64.342,64.344 35.479,0 64.339,-28.866 64.339,-64.344 0,-35.476 -28.859,-64.337 -64.339,-64.337 z" />
        <path d="m 309.68475,521.19926 c -40.208,0 -72.919,-32.712 -72.919,-72.921 0,-40.204 32.711,-72.92 72.919,-72.92 40.209,0 72.92,32.716 72.92,72.92 0,40.209 -32.711,72.921 -72.92,72.921 z m 0,-137.258 c -35.478,0 -64.342,28.861 -64.342,64.337 0,35.478 28.864,64.344 64.342,64.344 35.479,0 64.339,-28.866 64.339,-64.344 0,-35.476 -28.859,-64.337 -64.339,-64.337 z" id="path4092" inkscape:connector-curvature="0" style="fill:#ffd42a;fill-opacity:1" />
      </g>
      <g id="g73" style="fill:#ffd42a">
        <path style="fill:#ffd42a;fill-opacity:1" inkscape:connector-curvature="0" id="path75" d="m 309.68675,521.20226 c -1.674,0 -3.259,-0.984 -3.953,-2.619 -0.922,-2.184 0.097,-4.702 2.279,-5.623 38.386,-16.239 36.852,-60.146 36.711,-62.957 -4.759,-48.573 -36.759,-66.405 -37.08,-66.581 -2.083,-1.125 -2.862,-3.73 -1.731,-5.812 1.126,-2.084 3.73,-2.862 5.813,-1.733 1.482,0.804 36.382,20.254 41.546,73.389 0.005,0.057 0.009,0.109 0.009,0.167 0.033,0.535 0.708,13.304 -4.027,28.452 -6.348,20.315 -19.452,35.175 -37.897,42.976 -0.547,0.232 -1.112,0.341 -1.67,0.341 z" />
        <path d="m 309.68675,521.20226 c -1.674,0 -3.259,-0.984 -3.953,-2.619 -0.922,-2.184 0.097,-4.702 2.279,-5.623 38.386,-16.239 36.852,-60.146 36.711,-62.957 -4.759,-48.573 -36.759,-66.405 -37.08,-66.581 -2.083,-1.125 -2.862,-3.73 -1.731,-5.812 1.126,-2.084 3.73,-2.862 5.813,-1.733 1.482,0.804 36.382,20.254 41.546,73.389 0.005,0.057 0.009,0.109 0.009,0.167 0.033,0.535 0.708,13.304 -4.027,28.452 -6.348,20.315 -19.452,35.175 -37.897,42.976 -0.547,0.232 -1.112,0.341 -1.67,0.341 z" id="path4094" inkscape:connector-curvature="0" style="fill:#ffd42a;fill-opacity:1" />
      </g>
      <g id="g77" style="fill:#ffd42a">
        <path style="fill:#ffd42a;fill-opacity:1" inkscape:connector-curvature="0" id="path79" d="m 308.28775,521.19926 c -0.687,0 -1.385,-0.166 -2.035,-0.515 -1.481,-0.804 -36.376,-20.257 -41.542,-73.39 -0.004,-0.055 -0.009,-0.111 -0.012,-0.166 -0.029,-0.535 -0.708,-13.304 4.028,-28.453 6.35,-20.312 19.453,-35.175 37.898,-42.976 2.181,-0.929 4.698,0.1 5.623,2.278 0.922,2.184 -0.096,4.699 -2.279,5.622 -38.388,16.24 -36.85,60.146 -36.709,62.959 4.736,48.318 35.767,65.861 37.09,66.586 2.069,1.136 2.842,3.738 1.709,5.814 -0.78,1.433 -2.252,2.241 -3.771,2.241 z" />
        <path d="m 308.28775,521.19926 c -0.687,0 -1.385,-0.166 -2.035,-0.515 -1.481,-0.804 -36.376,-20.257 -41.542,-73.39 -0.004,-0.055 -0.009,-0.111 -0.012,-0.166 -0.029,-0.535 -0.708,-13.304 4.028,-28.453 6.35,-20.312 19.453,-35.175 37.898,-42.976 2.181,-0.929 4.698,0.1 5.623,2.278 0.922,2.184 -0.096,4.699 -2.279,5.622 -38.388,16.24 -36.85,60.146 -36.709,62.959 4.736,48.318 35.767,65.861 37.09,66.586 2.069,1.136 2.842,3.738 1.709,5.814 -0.78,1.433 -2.252,2.241 -3.771,2.241 z" id="path4096" inkscape:connector-curvature="0" style="fill:#ffd42a;fill-opacity:1" />
      </g>
      <g id="g81" style="fill:#ffd42a">
        <path style="fill:#ffd42a;fill-opacity:1" inkscape:connector-curvature="0" id="path83" d="m 311.30275,426.85226 c -1.115,0 -1.802,-0.05 -1.965,-0.062 -0.061,-0.007 -0.125,-0.013 -0.183,-0.018 -17.419,-2.167 -30.904,-7.08 -40.079,-14.602 -7.228,-5.928 -9.063,-11.385 -9.247,-11.988 -0.695,-2.266 0.575,-4.664 2.839,-5.361 2.244,-0.686 4.619,0.552 5.341,2.776 0.151,0.413 6.285,16.167 42.09,20.646 1.722,0.116 24.73,1.106 42.666,-21.954 1.454,-1.87 4.15,-2.208 6.02,-0.753 1.87,1.455 2.206,4.148 0.752,6.02 -18.23,23.441 -41.368,25.296 -48.234,25.296 z" />
        <path d="m 311.30275,426.85226 c -1.115,0 -1.802,-0.05 -1.965,-0.062 -0.061,-0.007 -0.125,-0.013 -0.183,-0.018 -17.419,-2.167 -30.904,-7.08 -40.079,-14.602 -7.228,-5.928 -9.063,-11.385 -9.247,-11.988 -0.695,-2.266 0.575,-4.664 2.839,-5.361 2.244,-0.686 4.619,0.552 5.341,2.776 0.151,0.413 6.285,16.167 42.09,20.646 1.722,0.116 24.73,1.106 42.666,-21.954 1.454,-1.87 4.15,-2.208 6.02,-0.753 1.87,1.455 2.206,4.148 0.752,6.02 -18.23,23.441 -41.368,25.296 -48.234,25.296 z" id="path4098" inkscape:connector-curvature="0" style="fill:#ffd42a;fill-opacity:1" />
      </g>
      <g id="g85" style="fill:#ffd42a">
        <path style="fill:#ffd42a;fill-opacity:1" inkscape:connector-curvature="0" id="path87" d="m 356.15075,500.84326 c -1.813,0 -3.494,-1.156 -4.079,-2.966 -0.152,-0.411 -6.286,-16.164 -42.092,-20.645 -1.727,-0.115 -24.729,-1.107 -42.664,21.954 -1.455,1.872 -4.149,2.209 -6.02,0.752 -1.872,-1.454 -2.208,-4.15 -0.751,-6.02 21.195,-27.252 49.022,-25.323 50.198,-25.232 0.061,0.004 0.125,0.011 0.184,0.018 17.418,2.167 30.905,7.077 40.078,14.599 7.229,5.927 9.061,11.389 9.247,11.992 0.698,2.263 -0.576,4.663 -2.839,5.356 -0.42,0.13 -0.847,0.192 -1.262,0.192 z" />
        <path d="m 356.15075,500.84326 c -1.813,0 -3.494,-1.156 -4.079,-2.966 -0.152,-0.411 -6.286,-16.164 -42.092,-20.645 -1.727,-0.115 -24.729,-1.107 -42.664,21.954 -1.455,1.872 -4.149,2.209 -6.02,0.752 -1.872,-1.454 -2.208,-4.15 -0.751,-6.02 21.195,-27.252 49.022,-25.323 50.198,-25.232 0.061,0.004 0.125,0.011 0.184,0.018 17.418,2.167 30.905,7.077 40.078,14.599 7.229,5.927 9.061,11.389 9.247,11.992 0.698,2.263 -0.576,4.663 -2.839,5.356 -0.42,0.13 -0.847,0.192 -1.262,0.192 z" id="path4100" inkscape:connector-curvature="0" style="fill:#ffd42a;fill-opacity:1" />
      </g>
    </g>
  </g>
</svg>
